<?xml version="1.0" encoding="UTF-8" standalone="no"?>
<!-- Created with Inkscape (http://www.inkscape.org/) -->

<svg
   width="280"
   height="80"
   viewBox="0 0 74.083331 21.166667"
   version="1.1"
   id="svg4201"
   xmlns="http://www.w3.org/2000/svg"
   xmlns:svg="http://www.w3.org/2000/svg">
  <defs
     id="defs4198" />
  <g
     id="layer1">
    <g
       id="g4547"
       transform="translate(-0.38833682,-0.85434101)">
      <path
         id="path2529"
         style="clip-rule:evenodd;fill:none;fill-rule:evenodd;stroke:#000000;stroke-width:0.132858;stroke-linecap:round;stroke-linejoin:round;stroke-miterlimit:4;stroke-dasharray:none"
         d="M 6.7294444,5.0740413 A 7.9012719,7.9012719 0 0 0 5.3567264,6.454344 5.7288751,5.7288751 0 0 1 8.051067,11.312938 5.7288751,5.7288751 0 0 1 5.3599203,16.165344 7.9012719,7.9012719 0 0 0 6.7843293,17.57997 5.7288751,5.7288751 0 0 1 11.598813,14.949296 5.7288751,5.7288751 0 0 1 16.395737,17.547037 7.9012719,7.9012719 0 0 0 17.774642,16.1855 5.7288751,5.7288751 0 0 1 15.102057,11.344669 5.7288751,5.7288751 0 0 1 17.826932,6.4711058 7.9012719,7.9012719 0 0 0 16.459801,5.0876141 5.7288751,5.7288751 0 0 1 11.598813,7.7923302 5.7288751,5.7288751 0 0 1 6.7294444,5.0740413 Z" />
      <g
         style="clip-rule:evenodd;fill-rule:evenodd;stroke-miterlimit:10"
         id="g3364"
         transform="matrix(0.13674964,0,0,0.13674964,5.037286,4.6774877)">
        <g
           id="path2220"
           transform="matrix(-0.00533774,1.37301,-1.36326,-0.00529981,1796.4,-2597.68)">
          <path
             id="path1402"
             d="m 1902,1245 c 20,20 40,20 60,0 -20,20 -20,40 0,60 -20,-20 -40,-20 -60,0 20,-20 20,-40 0,-60"
             style="fill-rule:nonzero;stroke:#000000;stroke-width:1px" />
        </g>
      </g>
    </g>
    <g
       id="text2376-9-1"
       transform="matrix(0.18084847,0,0,0.20190455,-30.876684,-69.683113)"
       style="clip-rule:evenodd;fill-rule:evenodd;stroke-miterlimit:10">
      <path
         id="path5138"
         d="m 299.745,401.692 c 0,0.48 -0.168,0.888 -0.504,1.224 -0.336,0.336 -0.744,0.504 -1.224,0.504 -0.48,0 -0.888,-0.168 -1.224,-0.504 -0.336,-0.336 -0.504,-0.744 -0.504,-1.224 v -12.24 c 0,-0.48 0.168,-0.888 0.504,-1.224 0.336,-0.336 0.744,-0.504 1.224,-0.504 0.48,0 0.888,0.168 1.224,0.504 0.336,0.336 0.504,0.744 0.504,1.224 z"
         style="fill-rule:nonzero;stroke:#000000;stroke-width:0.06px;stroke-linejoin:round;stroke-miterlimit:2" />
      <path
         id="path5140"
         d="m 346.041,387.724 c 0.48,0 0.888,0.168 1.224,0.504 0.336,0.336 0.504,0.744 0.504,1.224 0,0.48 -0.168,0.888 -0.504,1.224 -0.336,0.336 -0.744,0.504 -1.224,0.504 h -10.656 v 10.512 c 0,0.48 -0.168,0.888 -0.504,1.224 -0.336,0.336 -0.744,0.504 -1.224,0.504 -0.48,0 -0.888,-0.168 -1.224,-0.504 -0.336,-0.336 -0.504,-0.744 -0.504,-1.224 V 391.18 h -10.8 c -0.432,-0.048 -0.804,-0.228 -1.116,-0.54 -0.312,-0.336 -0.468,-0.732 -0.468,-1.188 0,-0.48 0.168,-0.888 0.504,-1.224 0.336,-0.336 0.744,-0.504 1.224,-0.504 z"
         style="fill-rule:nonzero;stroke:#000000;stroke-width:0.06px;stroke-linejoin:round;stroke-miterlimit:2" />
      <path
         id="path5142"
         d="m 390.717,397.3 c 0.648,0.408 1.308,0.852 1.98,1.332 0.672,0.456 1.356,0.96 2.052,1.512 0.264,0.192 0.492,0.42 0.684,0.684 0.192,0.24 0.288,0.528 0.288,0.864 0,0.48 -0.168,0.888 -0.504,1.224 -0.336,0.336 -0.744,0.504 -1.224,0.504 -0.408,0 -0.816,-0.168 -1.224,-0.504 -0.984,-0.72 -1.992,-1.416 -3.024,-2.088 -1.032,-0.672 -2.112,-1.272 -3.24,-1.8 -1.104,-0.528 -2.256,-0.948 -3.456,-1.26 -1.2,-0.312 -2.448,-0.468 -3.744,-0.468 h -7.164 c -0.312,0.048 -0.576,0.192 -0.792,0.432 -0.216,0.24 -0.324,0.54 -0.324,0.9 v 3.06 c 0,0.48 -0.18,0.888 -0.54,1.224 -0.336,0.336 -0.732,0.504 -1.188,0.504 -0.48,0 -0.888,-0.168 -1.224,-0.504 -0.336,-0.336 -0.504,-0.744 -0.504,-1.224 v -3.456 c 0,-0.6 0.108,-1.164 0.324,-1.692 0.24,-0.552 0.552,-1.02 0.936,-1.404 0.384,-0.408 0.84,-0.72 1.368,-0.936 0.528,-0.24 1.104,-0.36 1.728,-0.36 h 19.08 c 0.36,0 0.672,-0.12 0.936,-0.36 0.288,-0.264 0.432,-0.588 0.432,-0.972 0,-0.36 -0.144,-0.672 -0.432,-0.936 -0.264,-0.264 -0.576,-0.396 -0.936,-0.396 h -21.708 c -0.48,0 -0.888,-0.168 -1.224,-0.504 -0.336,-0.336 -0.504,-0.744 -0.504,-1.224 0,-0.48 0.168,-0.888 0.504,-1.224 0.336,-0.336 0.744,-0.504 1.224,-0.504 h 21.564 c 0.672,0 1.296,0.132 1.872,0.396 0.6,0.24 1.116,0.576 1.548,1.008 0.456,0.432 0.804,0.936 1.044,1.512 0.264,0.576 0.396,1.2 0.396,1.872 0,0.672 -0.132,1.296 -0.396,1.872 -0.24,0.576 -0.588,1.08 -1.044,1.512 -0.432,0.432 -0.948,0.78 -1.548,1.044 -0.576,0.24 -1.2,0.36 -1.872,0.36 z"
         style="fill-rule:nonzero;stroke:#000000;stroke-width:0.06px;stroke-linejoin:round;stroke-miterlimit:2" />
      <path
         id="path5144"
         d="m 418.581,402.772 c -0.36,0.432 -0.804,0.648 -1.332,0.648 -0.48,0 -0.888,-0.168 -1.224,-0.504 -0.336,-0.336 -0.504,-0.744 -0.504,-1.224 0,-0.432 0.12,-0.78 0.36,-1.044 l 8.748,-11.772 c 0.408,-0.552 0.948,-0.996 1.62,-1.332 0.672,-0.36 1.392,-0.54 2.16,-0.54 0.72,0 1.404,0.156 2.052,0.468 0.648,0.312 1.176,0.744 1.584,1.296 l 8.748,11.7 c 0.144,0.168 0.264,0.36 0.36,0.576 0.096,0.192 0.144,0.408 0.144,0.648 0,0.48 -0.168,0.888 -0.504,1.224 -0.336,0.336 -0.744,0.504 -1.224,0.504 -0.576,0 -1.032,-0.228 -1.368,-0.684 l -8.388,-11.196 c -0.168,-0.192 -0.384,-0.396 -0.648,-0.612 -0.24,-0.24 -0.492,-0.36 -0.756,-0.36 -0.264,0 -0.528,0.12 -0.792,0.36 -0.24,0.216 -0.432,0.42 -0.576,0.612 z"
         style="fill-rule:nonzero;stroke:#000000;stroke-width:0.06px;stroke-linejoin:round;stroke-miterlimit:2" />
      <path
         id="path5146"
         d="m 461.096,395.572 c 0,-0.912 0.144,-1.824 0.432,-2.736 0.312,-0.936 0.756,-1.776 1.332,-2.52 0.576,-0.768 1.272,-1.392 2.088,-1.872 0.816,-0.48 1.74,-0.72 2.772,-0.72 h 20.988 c 0.48,0 0.888,0.168 1.224,0.504 0.336,0.336 0.504,0.744 0.504,1.224 0,0.48 -0.168,0.888 -0.504,1.224 -0.336,0.336 -0.744,0.504 -1.224,0.504 h -20.232 c -0.84,0 -1.524,0.156 -2.052,0.468 -0.504,0.288 -0.912,0.648 -1.224,1.08 -0.288,0.432 -0.492,0.912 -0.612,1.44 -0.096,0.504 -0.144,0.972 -0.144,1.404 0,0.432 0.048,0.912 0.144,1.44 0.12,0.504 0.324,0.972 0.612,1.404 0.312,0.432 0.72,0.804 1.224,1.116 0.528,0.288 1.212,0.432 2.052,0.432 h 20.232 c 0.48,0 0.888,0.168 1.224,0.504 0.336,0.336 0.504,0.744 0.504,1.224 0,0.48 -0.168,0.888 -0.504,1.224 -0.336,0.336 -0.744,0.504 -1.224,0.504 H 467.36 c -0.984,0 -1.86,-0.24 -2.628,-0.72 -0.768,-0.48 -1.428,-1.092 -1.98,-1.836 -0.528,-0.768 -0.936,-1.62 -1.224,-2.556 -0.288,-0.936 -0.432,-1.848 -0.432,-2.736 z"
         style="fill-rule:nonzero;stroke:#000000;stroke-width:0.06px;stroke-linejoin:round;stroke-miterlimit:2" />
      <path
         id="path5148"
         d="m 536.732,387.724 c 0.48,0 0.888,0.168 1.224,0.504 0.336,0.336 0.504,0.744 0.504,1.224 0,0.48 -0.168,0.888 -0.504,1.224 -0.336,0.336 -0.744,0.504 -1.224,0.504 h -10.656 v 10.512 c 0,0.48 -0.168,0.888 -0.504,1.224 -0.336,0.336 -0.744,0.504 -1.224,0.504 -0.48,0 -0.888,-0.168 -1.224,-0.504 -0.336,-0.336 -0.504,-0.744 -0.504,-1.224 V 391.18 h -10.8 c -0.432,-0.048 -0.804,-0.228 -1.116,-0.54 -0.312,-0.336 -0.468,-0.732 -0.468,-1.188 0,-0.48 0.168,-0.888 0.504,-1.224 0.336,-0.336 0.744,-0.504 1.224,-0.504 z"
         style="fill-rule:nonzero;stroke:#000000;stroke-width:0.06px;stroke-linejoin:round;stroke-miterlimit:2" />
    </g>
  </g>
</svg>
