<?xml version="1.0" encoding="UTF-8" standalone="no"?><svg xmlns:xlink="http://www.w3.org/1999/xlink" width="678.03" xmlns="http://www.w3.org/2000/svg" height="134" id="screenshot-ab703895-c358-80d2-8002-02a3ea087ac3" viewBox="-1 -1 678.03 134" style="-webkit-print-color-adjust: exact;" fill="none" version="1.1"><g id="shape-ab703895-c358-80d2-8002-02a3ea087ac3" rx="0" ry="0" style="fill: rgb(0, 0, 0);"><g id="shape-593e11cb-6df9-80fc-8002-02b35b7c45c6" rx="0" ry="0"><g id="shape-ab703895-c358-80d2-8002-02a3ea08a448"><g class="fills" id="fills-ab703895-c358-80d2-8002-02a3ea08a448"><path rx="0" ry="0" d="M14.596,0.000C9.144,4.241,4.242,9.134,0.000,14.569C17.819,25.616,28.647,44.997,28.649,65.852C28.632,86.676,17.820,106.026,0.034,117.069C4.422,122.665,9.512,127.682,15.180,132.000C26.380,114.708,45.663,104.249,66.372,104.233C86.948,104.235,106.132,114.548,117.378,131.652C122.841,127.477,127.765,122.651,132.040,117.281C114.366,106.215,103.639,86.929,103.622,66.186C103.639,45.212,114.604,25.744,132.596,14.746C128.375,9.303,123.492,4.398,118.059,0.143C106.953,17.881,87.412,28.675,66.372,28.692C45.273,28.674,25.684,17.820,14.596,0.000ZL14.596,0.000Z" style="stroke-dasharray: none; fill-rule: evenodd; clip-rule: evenodd; fill: none; stroke-linejoin: round; stroke-miterlimit: 4;"/></g><g id="strokes-ab703895-c358-80d2-8002-02a3ea08a448" class="strokes"><g class="stroke-shape"><path rx="0" ry="0" d="M14.596,0.000C9.144,4.241,4.242,9.134,0.000,14.569C17.819,25.616,28.647,44.997,28.649,65.852C28.632,86.676,17.820,106.026,0.034,117.069C4.422,122.665,9.512,127.682,15.180,132.000C26.380,114.708,45.663,104.249,66.372,104.233C86.948,104.235,106.132,114.548,117.378,131.652C122.841,127.477,127.765,122.651,132.040,117.281C114.366,106.215,103.639,86.929,103.622,66.186C103.639,45.212,114.604,25.744,132.596,14.746C128.375,9.303,123.492,4.398,118.059,0.143C106.953,17.881,87.412,28.675,66.372,28.692C45.273,28.674,25.684,17.820,14.596,0.000ZL14.596,0.000Z" style="stroke-dasharray: none; fill-rule: evenodd; clip-rule: evenodd; fill: none; stroke-linejoin: round; stroke-miterlimit: 4; stroke-width: 2; stroke: rgb(255, 255, 255); stroke-opacity: 1;"/></g></g></g><g id="shape-ab703895-c358-80d2-8002-02a3ea08a449" rx="0" ry="0" style="clip-rule: evenodd; fill-rule: evenodd; stroke-miterlimit: 10; fill: rgb(0, 0, 0);"><g id="shape-ab703895-c358-80d2-8002-02a3ea08a44b" rx="0" ry="0" style="fill: rgb(0, 0, 0);"><g id="shape-ab703895-c358-80d2-8002-02a3ea08a44c"><g class="fills" id="fills-ab703895-c358-80d2-8002-02a3ea08a44c"><path rx="0" ry="0" d="M125.319,6.931C85.698,46.228,85.415,85.326,124.727,124.927C85.415,85.326,47.218,85.855,7.597,125.152C47.218,85.855,46.296,46.479,6.983,6.877C46.296,46.479,85.698,46.228,125.319,6.931Z" style="fill-rule: nonzero; fill: rgb(255, 255, 255); fill-opacity: 1;"/></g><g id="strokes-ab703895-c358-80d2-8002-02a3ea08a44c" class="strokes"><g class="stroke-shape"><path rx="0" ry="0" d="M125.319,6.931C85.698,46.228,85.415,85.326,124.727,124.927C85.415,85.326,47.218,85.855,7.597,125.152C47.218,85.855,46.296,46.479,6.983,6.877C46.296,46.479,85.698,46.228,125.319,6.931Z" style="fill-rule: nonzero; fill: none; stroke-width: 1; stroke: rgb(255, 255, 255); stroke-opacity: 1;"/></g></g></g></g></g></g><g id="shape-ab703895-c358-80d2-8002-02a3ea08a44a" rx="0" ry="0" style="clip-rule: evenodd; fill-rule: evenodd; stroke-miterlimit: 10; fill: rgb(0, 0, 0);"><g id="shape-ab703895-c358-80d2-8002-02a3ea08a44d"><g class="fills" id="fills-ab703895-c358-80d2-8002-02a3ea08a44d"><path rx="0" ry="0" d="M217.959,72.575C217.959,73.598,217.636,74.467,216.990,75.183C216.344,75.899,215.559,76.257,214.636,76.257C213.713,76.257,212.928,75.899,212.282,75.183C211.636,74.467,211.313,73.598,211.313,72.575L211.313,46.490C211.313,45.467,211.636,44.597,212.282,43.881C212.928,43.165,213.713,42.807,214.636,42.807C215.559,42.807,216.344,43.165,216.990,43.881C217.636,44.597,217.959,45.467,217.959,46.490Z" style="fill-rule: nonzero; stroke-linejoin: round; stroke-miterlimit: 2; fill: rgb(255, 255, 255); fill-opacity: 1;"/></g><g id="strokes-ab703895-c358-80d2-8002-02a3ea08a44d" class="strokes"><g class="stroke-shape"><path rx="0" ry="0" d="M217.959,72.575C217.959,73.598,217.636,74.467,216.990,75.183C216.344,75.899,215.559,76.257,214.636,76.257C213.713,76.257,212.928,75.899,212.282,75.183C211.636,74.467,211.313,73.598,211.313,72.575L211.313,46.490C211.313,45.467,211.636,44.597,212.282,43.881C212.928,43.165,213.713,42.807,214.636,42.807C215.559,42.807,216.344,43.165,216.990,43.881C217.636,44.597,217.959,45.467,217.959,46.490Z" style="fill-rule: nonzero; stroke-linejoin: round; stroke-miterlimit: 2; fill: none; stroke-width: 0.06; stroke: rgb(255, 255, 255); stroke-opacity: 1;"/></g></g></g><g id="shape-ab703895-c358-80d2-8002-02a3ea08a44e"><g class="fills" id="fills-ab703895-c358-80d2-8002-02a3ea08a44e"><path rx="0" ry="0" d="M306.985,42.807C307.908,42.807,308.692,43.165,309.338,43.881C309.984,44.597,310.308,45.467,310.308,46.490C310.308,47.513,309.984,48.382,309.338,49.098C308.692,49.814,307.908,50.172,306.985,50.172L286.494,50.172L286.494,72.575C286.494,73.598,286.170,74.467,285.524,75.183C284.878,75.899,284.094,76.257,283.171,76.257C282.248,76.257,281.463,75.899,280.817,75.183C280.171,74.467,279.848,73.598,279.848,72.575L279.848,50.172L259.080,50.172C258.249,50.070,257.534,49.687,256.934,49.022C256.334,48.306,256.034,47.462,256.034,46.490C256.034,45.467,256.357,44.597,257.003,43.881C257.649,43.165,258.434,42.807,259.357,42.807Z" style="fill-rule: nonzero; stroke-linejoin: round; stroke-miterlimit: 2; fill: rgb(255, 255, 255); fill-opacity: 1;"/></g><g id="strokes-ab703895-c358-80d2-8002-02a3ea08a44e" class="strokes"><g class="stroke-shape"><path rx="0" ry="0" d="M306.985,42.807C307.908,42.807,308.692,43.165,309.338,43.881C309.984,44.597,310.308,45.467,310.308,46.490C310.308,47.513,309.984,48.382,309.338,49.098C308.692,49.814,307.908,50.172,306.985,50.172L286.494,50.172L286.494,72.575C286.494,73.598,286.170,74.467,285.524,75.183C284.878,75.899,284.094,76.257,283.171,76.257C282.248,76.257,281.463,75.899,280.817,75.183C280.171,74.467,279.848,73.598,279.848,72.575L279.848,50.172L259.080,50.172C258.249,50.070,257.534,49.687,256.934,49.022C256.334,48.306,256.034,47.462,256.034,46.490C256.034,45.467,256.357,44.597,257.003,43.881C257.649,43.165,258.434,42.807,259.357,42.807Z" style="fill-rule: nonzero; stroke-linejoin: round; stroke-miterlimit: 2; fill: none; stroke-width: 0.06; stroke: rgb(255, 255, 255); stroke-opacity: 1;"/></g></g></g><g id="shape-ab703895-c358-80d2-8002-02a3ea08a44f"><g class="fills" id="fills-ab703895-c358-80d2-8002-02a3ea08a44f"><path rx="0" ry="0" d="M392.895,63.215C394.141,64.084,395.410,65.030,396.703,66.053C397.995,67.025,399.310,68.099,400.649,69.276C401.156,69.685,401.595,70.171,401.964,70.733C402.333,71.245,402.518,71.859,402.518,72.575C402.518,73.598,402.195,74.467,401.548,75.183C400.902,75.899,400.118,76.257,399.195,76.257C398.410,76.257,397.626,75.899,396.841,75.183C394.949,73.649,393.010,72.165,391.026,70.733C389.041,69.301,386.965,68.023,384.796,66.897C382.673,65.772,380.457,64.877,378.150,64.212C375.842,63.547,373.442,63.215,370.950,63.215L357.174,63.215C356.574,63.317,356.066,63.624,355.651,64.135C355.236,64.647,355.028,65.286,355.028,66.053L355.028,72.575C355.028,73.598,354.682,74.467,353.990,75.183C353.344,75.899,352.582,76.257,351.705,76.257C350.782,76.257,349.998,75.899,349.351,75.183C348.705,74.467,348.382,73.598,348.382,72.575L348.382,65.209C348.382,63.931,348.590,62.729,349.005,61.604C349.467,60.427,350.067,59.430,350.805,58.612C351.544,57.742,352.421,57.077,353.436,56.617C354.451,56.105,355.559,55.850,356.759,55.850L393.449,55.850C394.141,55.850,394.741,55.594,395.249,55.083C395.803,54.520,396.080,53.829,396.080,53.011C396.080,52.244,395.803,51.579,395.249,51.016C394.741,50.454,394.141,50.172,393.449,50.172L351.705,50.172C350.782,50.172,349.998,49.814,349.351,49.098C348.705,48.382,348.382,47.513,348.382,46.490C348.382,45.467,348.705,44.597,349.351,43.881C349.998,43.165,350.782,42.807,351.705,42.807L393.172,42.807C394.464,42.807,395.664,43.089,396.772,43.651C397.926,44.163,398.918,44.879,399.749,45.799C400.625,46.720,401.295,47.794,401.756,49.022C402.264,50.249,402.518,51.579,402.518,53.011C402.518,54.443,402.264,55.773,401.756,57.000C401.295,58.228,400.625,59.302,399.749,60.223C398.918,61.143,397.926,61.885,396.772,62.448C395.664,62.959,394.464,63.215,393.172,63.215Z" style="fill-rule: nonzero; stroke-linejoin: round; stroke-miterlimit: 2; fill: rgb(255, 255, 255); fill-opacity: 1;"/></g><g id="strokes-ab703895-c358-80d2-8002-02a3ea08a44f" class="strokes"><g class="stroke-shape"><path rx="0" ry="0" d="M392.895,63.215C394.141,64.084,395.410,65.030,396.703,66.053C397.995,67.025,399.310,68.099,400.649,69.276C401.156,69.685,401.595,70.171,401.964,70.733C402.333,71.245,402.518,71.859,402.518,72.575C402.518,73.598,402.195,74.467,401.548,75.183C400.902,75.899,400.118,76.257,399.195,76.257C398.410,76.257,397.626,75.899,396.841,75.183C394.949,73.649,393.010,72.165,391.026,70.733C389.041,69.301,386.965,68.023,384.796,66.897C382.673,65.772,380.457,64.877,378.150,64.212C375.842,63.547,373.442,63.215,370.950,63.215L357.174,63.215C356.574,63.317,356.066,63.624,355.651,64.135C355.236,64.647,355.028,65.286,355.028,66.053L355.028,72.575C355.028,73.598,354.682,74.467,353.990,75.183C353.344,75.899,352.582,76.257,351.705,76.257C350.782,76.257,349.998,75.899,349.351,75.183C348.705,74.467,348.382,73.598,348.382,72.575L348.382,65.209C348.382,63.931,348.590,62.729,349.005,61.604C349.467,60.427,350.067,59.430,350.805,58.612C351.544,57.742,352.421,57.077,353.436,56.617C354.451,56.105,355.559,55.850,356.759,55.850L393.449,55.850C394.141,55.850,394.741,55.594,395.249,55.083C395.803,54.520,396.080,53.829,396.080,53.011C396.080,52.244,395.803,51.579,395.249,51.016C394.741,50.454,394.141,50.172,393.449,50.172L351.705,50.172C350.782,50.172,349.998,49.814,349.351,49.098C348.705,48.382,348.382,47.513,348.382,46.490C348.382,45.467,348.705,44.597,349.351,43.881C349.998,43.165,350.782,42.807,351.705,42.807L393.172,42.807C394.464,42.807,395.664,43.089,396.772,43.651C397.926,44.163,398.918,44.879,399.749,45.799C400.625,46.720,401.295,47.794,401.756,49.022C402.264,50.249,402.518,51.579,402.518,53.011C402.518,54.443,402.264,55.773,401.756,57.000C401.295,58.228,400.625,59.302,399.749,60.223C398.918,61.143,397.926,61.885,396.772,62.448C395.664,62.959,394.464,63.215,393.172,63.215Z" style="fill-rule: nonzero; stroke-linejoin: round; stroke-miterlimit: 2; fill: none; stroke-width: 0.06; stroke: rgb(255, 255, 255); stroke-opacity: 1;"/></g></g></g><g id="shape-ab703895-c358-80d2-8002-02a3ea08a450"><g class="fills" id="fills-ab703895-c358-80d2-8002-02a3ea08a450"><path rx="0" ry="0" d="M446.477,74.876C445.784,75.797,444.931,76.257,443.915,76.257C442.992,76.257,442.208,75.899,441.562,75.183C440.915,74.467,440.592,73.598,440.592,72.575C440.592,71.654,440.823,70.912,441.285,70.350L458.107,45.262C458.891,44.086,459.930,43.140,461.222,42.424C462.514,41.657,463.899,41.273,465.376,41.273C466.760,41.273,468.075,41.605,469.322,42.270C470.568,42.935,471.583,43.856,472.367,45.032L489.190,69.966C489.467,70.324,489.697,70.733,489.882,71.194C490.066,71.603,490.159,72.063,490.159,72.575C490.159,73.598,489.836,74.467,489.190,75.183C488.543,75.899,487.759,76.257,486.836,76.257C485.728,76.257,484.851,75.771,484.205,74.799L468.075,50.940C467.752,50.530,467.337,50.096,466.829,49.635C466.368,49.124,465.883,48.868,465.376,48.868C464.868,48.868,464.360,49.124,463.853,49.635C463.391,50.096,463.022,50.530,462.745,50.940Z" style="fill-rule: nonzero; stroke-linejoin: round; stroke-miterlimit: 2; fill: rgb(255, 255, 255); fill-opacity: 1;"/></g><g id="strokes-ab703895-c358-80d2-8002-02a3ea08a450" class="strokes"><g class="stroke-shape"><path rx="0" ry="0" d="M446.477,74.876C445.784,75.797,444.931,76.257,443.915,76.257C442.992,76.257,442.208,75.899,441.562,75.183C440.915,74.467,440.592,73.598,440.592,72.575C440.592,71.654,440.823,70.912,441.285,70.350L458.107,45.262C458.891,44.086,459.930,43.140,461.222,42.424C462.514,41.657,463.899,41.273,465.376,41.273C466.760,41.273,468.075,41.605,469.322,42.270C470.568,42.935,471.583,43.856,472.367,45.032L489.190,69.966C489.467,70.324,489.697,70.733,489.882,71.194C490.066,71.603,490.159,72.063,490.159,72.575C490.159,73.598,489.836,74.467,489.190,75.183C488.543,75.899,487.759,76.257,486.836,76.257C485.728,76.257,484.851,75.771,484.205,74.799L468.075,50.940C467.752,50.530,467.337,50.096,466.829,49.635C466.368,49.124,465.883,48.868,465.376,48.868C464.868,48.868,464.360,49.124,463.853,49.635C463.391,50.096,463.022,50.530,462.745,50.940Z" style="fill-rule: nonzero; stroke-linejoin: round; stroke-miterlimit: 2; fill: none; stroke-width: 0.06; stroke: rgb(255, 255, 255); stroke-opacity: 1;"/></g></g></g><g id="shape-ab703895-c358-80d2-8002-02a3ea08a451"><g class="fills" id="fills-ab703895-c358-80d2-8002-02a3ea08a451"><path rx="0" ry="0" d="M528.232,59.532C528.232,57.589,528.509,55.645,529.062,53.702C529.662,51.707,530.516,49.917,531.624,48.331C532.731,46.694,534.070,45.365,535.639,44.342C537.208,43.319,538.985,42.807,540.969,42.807L581.329,42.807C582.252,42.807,583.036,43.165,583.682,43.881C584.328,44.597,584.651,45.467,584.651,46.490C584.651,47.513,584.328,48.382,583.682,49.098C583.036,49.814,582.252,50.172,581.329,50.172L542.423,50.172C540.808,50.172,539.492,50.505,538.477,51.170C537.508,51.784,536.723,52.551,536.123,53.471C535.570,54.392,535.177,55.415,534.947,56.540C534.762,57.614,534.670,58.612,534.670,59.532C534.670,60.453,534.762,61.476,534.947,62.601C535.177,63.675,535.570,64.672,536.123,65.593C536.723,66.514,537.508,67.307,538.477,67.971C539.492,68.585,540.808,68.892,542.423,68.892L581.329,68.892C582.252,68.892,583.036,69.250,583.682,69.966C584.328,70.682,584.651,71.552,584.651,72.575C584.651,73.598,584.328,74.467,583.682,75.183C583.036,75.899,582.252,76.257,581.329,76.257L540.277,76.257C538.385,76.257,536.700,75.746,535.224,74.723C533.747,73.700,532.478,72.396,531.416,70.810C530.401,69.173,529.616,67.358,529.062,65.363C528.509,63.368,528.232,61.425,528.232,59.532ZZ" style="fill-rule: nonzero; stroke-linejoin: round; stroke-miterlimit: 2; fill: rgb(255, 255, 255); fill-opacity: 1;"/></g><g id="strokes-ab703895-c358-80d2-8002-02a3ea08a451" class="strokes"><g class="stroke-shape"><path rx="0" ry="0" d="M528.232,59.532C528.232,57.589,528.509,55.645,529.062,53.702C529.662,51.707,530.516,49.917,531.624,48.331C532.731,46.694,534.070,45.365,535.639,44.342C537.208,43.319,538.985,42.807,540.969,42.807L581.329,42.807C582.252,42.807,583.036,43.165,583.682,43.881C584.328,44.597,584.651,45.467,584.651,46.490C584.651,47.513,584.328,48.382,583.682,49.098C583.036,49.814,582.252,50.172,581.329,50.172L542.423,50.172C540.808,50.172,539.492,50.505,538.477,51.170C537.508,51.784,536.723,52.551,536.123,53.471C535.570,54.392,535.177,55.415,534.947,56.540C534.762,57.614,534.670,58.612,534.670,59.532C534.670,60.453,534.762,61.476,534.947,62.601C535.177,63.675,535.570,64.672,536.123,65.593C536.723,66.514,537.508,67.307,538.477,67.971C539.492,68.585,540.808,68.892,542.423,68.892L581.329,68.892C582.252,68.892,583.036,69.250,583.682,69.966C584.328,70.682,584.651,71.552,584.651,72.575C584.651,73.598,584.328,74.467,583.682,75.183C583.036,75.899,582.252,76.257,581.329,76.257L540.277,76.257C538.385,76.257,536.700,75.746,535.224,74.723C533.747,73.700,532.478,72.396,531.416,70.810C530.401,69.173,529.616,67.358,529.062,65.363C528.509,63.368,528.232,61.425,528.232,59.532ZZ" style="fill-rule: nonzero; stroke-linejoin: round; stroke-miterlimit: 2; fill: none; stroke-width: 0.06; stroke: rgb(255, 255, 255); stroke-opacity: 1;"/></g></g></g><g id="shape-ab703895-c358-80d2-8002-02a3ea08a452"><g class="fills" id="fills-ab703895-c358-80d2-8002-02a3ea08a452"><path rx="0" ry="0" d="M673.677,42.807C674.600,42.807,675.385,43.165,676.031,43.881C676.677,44.597,677.000,45.467,677.000,46.490C677.000,47.513,676.677,48.382,676.031,49.098C675.385,49.814,674.600,50.172,673.677,50.172L653.186,50.172L653.186,72.575C653.186,73.598,652.863,74.467,652.217,75.183C651.571,75.899,650.786,76.257,649.863,76.257C648.940,76.257,648.155,75.899,647.509,75.183C646.863,74.467,646.540,73.598,646.540,72.575L646.540,50.172L625.772,50.172C624.941,50.070,624.226,49.687,623.626,49.022C623.026,48.306,622.726,47.462,622.726,46.490C622.726,45.467,623.049,44.597,623.695,43.881C624.341,43.165,625.126,42.807,626.049,42.807Z" style="fill-rule: nonzero; stroke-linejoin: round; stroke-miterlimit: 2; fill: rgb(255, 255, 255); fill-opacity: 1;"/></g><g id="strokes-ab703895-c358-80d2-8002-02a3ea08a452" class="strokes"><g class="stroke-shape"><path rx="0" ry="0" d="M673.677,42.807C674.600,42.807,675.385,43.165,676.031,43.881C676.677,44.597,677.000,45.467,677.000,46.490C677.000,47.513,676.677,48.382,676.031,49.098C675.385,49.814,674.600,50.172,673.677,50.172L653.186,50.172L653.186,72.575C653.186,73.598,652.863,74.467,652.217,75.183C651.571,75.899,650.786,76.257,649.863,76.257C648.940,76.257,648.155,75.899,647.509,75.183C646.863,74.467,646.540,73.598,646.540,72.575L646.540,50.172L625.772,50.172C624.941,50.070,624.226,49.687,623.626,49.022C623.026,48.306,622.726,47.462,622.726,46.490C622.726,45.467,623.049,44.597,623.695,43.881C624.341,43.165,625.126,42.807,626.049,42.807Z" style="fill-rule: nonzero; stroke-linejoin: round; stroke-miterlimit: 2; fill: none; stroke-width: 0.06; stroke: rgb(255, 255, 255); stroke-opacity: 1;"/></g></g></g></g></g></svg>